<svg xmlns="http://www.w3.org/2000/svg" viewBox="0 0 40.8 39.56"><defs><style>.cls-1{fill:#222838;}</style></defs><title>Asset 5_1</title><g id="Layer_2" data-name="Layer 2"><g id="Layer_1-2" data-name="Layer 1"><path class="cls-1" d="M12.56,15.2H9.2a1.34,1.34,0,0,0-1.36,1.32V30.64A1.34,1.34,0,0,0,9.2,32h3.36a1.35,1.35,0,0,0,1.37-1.32V16.52A1.35,1.35,0,0,0,12.56,15.2Z"/><path class="cls-1" d="M26,15.2a7.08,7.08,0,0,0-4.24,1.41v-.09A1.34,1.34,0,0,0,20.4,15.2H17a1.34,1.34,0,0,0-1.36,1.32V30.64A1.34,1.34,0,0,0,17,32H20.4a1.34,1.34,0,0,0,1.36-1.32V22.5a2.56,2.56,0,0,1,5.12,0v8.14A1.34,1.34,0,0,0,28.24,32H31.6A1.34,1.34,0,0,0,33,30.64V22A6.87,6.87,0,0,0,26,15.2Z"/><path class="cls-1" d="M10.88,7.6a3,3,0,1,0,3,3A3,3,0,0,0,10.88,7.6Z"/><path class="cls-1" d="M34.4,0H6.4A6.32,6.32,0,0,0,0,6.21V33.35a6.31,6.31,0,0,0,6.4,6.21h28a6.31,6.31,0,0,0,6.4-6.21V6.21A6.32,6.32,0,0,0,34.4,0ZM37,33.35a2.49,2.49,0,0,1-2.55,2.48H6.4a2.49,2.49,0,0,1-2.55-2.48V6.21A2.49,2.49,0,0,1,6.4,3.73h28A2.49,2.49,0,0,1,37,6.21Z"/></g></g></svg>