<svg xmlns="http://www.w3.org/2000/svg" viewBox="0 0 22.43 20.19"><defs><style>.cls-1{fill:#fff;}</style></defs><title>Asset 3</title><g id="Layer_2" data-name="Layer 2"><g id="Layer_1-2" data-name="Layer 1"><path class="cls-1" d="M20.83,0a2.53,2.53,0,0,0-1.19.18c-.5.2-8.41,3.53-15.78,6.63l-2.44,1a1.91,1.91,0,0,0,0,3.69l4.11,1.65c.36,1.06,1.19,3.54,1.39,4.2.13.39.44,1.37,1.23,1.6a1.43,1.43,0,0,0,.5.09,1.75,1.75,0,0,0,1-.37L12.3,16.5l3.18,2.94a2.45,2.45,0,0,0,1.63.75,2.21,2.21,0,0,0,2.08-1.78c.1-.48,3.16-15.85,3.16-15.84A2.05,2.05,0,0,0,21.81.42,1.8,1.8,0,0,0,20.83,0Zm-.75,2.42c-.42,2.12-2.72,13.7-3.07,15.36L12.37,13.5,9.22,16.17l.87-3.41,6.38-6.45c.29-.28.35-.38.35-.48a.2.2,0,0,0-.22-.22,1,1,0,0,0-.43.19c-1.29.8-6.75,3.91-9.44,5.44L2.83,9.69l1.9-.8Z"/></g></g></svg>