<svg xmlns="http://www.w3.org/2000/svg" viewBox="0 0 39.64 38.44"><defs><style>.cls-1{fill:#222838;}</style></defs><title>Asset 7</title><g id="Layer_2" data-name="Layer 2"><g id="Layer_1-2" data-name="Layer 1"><path class="cls-1" d="M33.36,0H6.28A6.19,6.19,0,0,0,0,6.09V32.35a6.19,6.19,0,0,0,6.28,6.09H33.36a6.19,6.19,0,0,0,6.28-6.09V6.09A6.19,6.19,0,0,0,33.36,0ZM26.65,24.79h3.6a1.39,1.39,0,0,0,1.39-1.2l.41-3.15a1.32,1.32,0,0,0-.34-1.07,1.42,1.42,0,0,0-1.06-.47h-4V15.54a1.81,1.81,0,0,1,1.84-1.78h2.16a1.39,1.39,0,0,0,1.41-1.37V8.85a1.37,1.37,0,0,0-1.29-1.36c-.27,0-1.73-.14-3.55-.14-5,0-7.72,2.86-7.72,8.05v3.5h-4a1.39,1.39,0,0,0-1.41,1.37v3.15a1.39,1.39,0,0,0,1.41,1.37h4v9.87H6.28A2.33,2.33,0,0,1,3.9,32.35V6.09A2.33,2.33,0,0,1,6.28,3.78H33.36a2.32,2.32,0,0,1,2.38,2.31V32.35a2.32,2.32,0,0,1-2.38,2.31H26.65Z"/></g></g></svg>