<svg xmlns="http://www.w3.org/2000/svg" viewBox="0 0 21.61 21.62"><defs><style>.cls-1{fill:#fff;}</style></defs><title>Asset 1</title><g id="Layer_2" data-name="Layer 2"><g id="Layer_1-2" data-name="Layer 1"><path class="cls-1" d="M10.81,0A10.81,10.81,0,0,0,1.33,16a.59.59,0,0,1,0,.43L.43,20a1,1,0,0,0,1.23,1.27l3.77-.89a.62.62,0,0,1,.4,0,10.87,10.87,0,0,0,5,1.22h0a10.82,10.82,0,0,0,10.8-10.81A10.81,10.81,0,0,0,10.81,0Zm0,2.16a8.65,8.65,0,0,1,0,17.29A8.56,8.56,0,0,1,6.68,18.4l-.54-.29a.53.53,0,0,0-.41-.05l-.59.13-2,.47a.09.09,0,0,1-.11-.11l.48-1.78.17-.64a.61.61,0,0,0-.05-.44l-.33-.57a8.64,8.64,0,0,1,7.49-13ZM7,5.82a1,1,0,0,0-.72.33A3.07,3.07,0,0,0,5.32,8.4a5.24,5.24,0,0,0,1.1,2.8A11.05,11.05,0,0,0,11,15.27c2.28.9,2.75.72,3.24.68a2.75,2.75,0,0,0,1.83-1.28,2.27,2.27,0,0,0,.15-1.29c-.06-.11-.24-.18-.51-.31s-1.6-.79-1.85-.88-.43-.14-.61.13-.69.88-.85,1.06-.32.21-.59.07a7.47,7.47,0,0,1-2.17-1.34,8.36,8.36,0,0,1-1.5-1.87.39.39,0,0,1,.12-.55c.12-.12.27-.32.4-.47A1.74,1.74,0,0,0,9,8.77a.51.51,0,0,0,0-.48c-.07-.13-.59-1.47-.83-2s-.42-.46-.61-.47Z"/></g></g></svg>