<svg xmlns="http://www.w3.org/2000/svg" viewBox="0 0 41.29 40.04"><defs><style>.cls-1{fill:#222838;}</style></defs><title>Asset 6</title><g id="Layer_2" data-name="Layer 2"><g id="Layer_1-2" data-name="Layer 1"><path class="cls-1" d="M20.65,3.61c5.51,0,6.16,0,8.34.11a11.88,11.88,0,0,1,3.83.69,6.56,6.56,0,0,1,2.38,1.5,6.18,6.18,0,0,1,1.54,2.3,10.87,10.87,0,0,1,.71,3.72c.1,2.11.12,2.74.12,8.09s0,6-.12,8.09a10.87,10.87,0,0,1-.71,3.72,6.18,6.18,0,0,1-1.54,2.3,6.56,6.56,0,0,1-2.38,1.5,11.88,11.88,0,0,1-3.83.69c-2.18.09-2.83.11-8.34.11s-6.17,0-8.35-.11a11.88,11.88,0,0,1-3.83-.69,6.52,6.52,0,0,1-2.37-1.5,6.2,6.2,0,0,1-1.55-2.3,10.87,10.87,0,0,1-.71-3.72C3.74,26,3.72,25.37,3.72,20s0-6,.12-8.09a10.87,10.87,0,0,1,.71-3.72A6.2,6.2,0,0,1,6.1,5.91a6.52,6.52,0,0,1,2.37-1.5,11.88,11.88,0,0,1,3.83-.69c2.18-.09,2.83-.11,8.35-.11m0-3.61C15,0,14.34,0,12.13.12a15.85,15.85,0,0,0-5,.93A10.07,10.07,0,0,0,3.47,3.36,9.78,9.78,0,0,0,1.08,6.91a14.24,14.24,0,0,0-1,4.86C0,13.9,0,14.58,0,20s0,6.12.12,8.25a14.3,14.3,0,0,0,1,4.86,9.78,9.78,0,0,0,2.39,3.55A10.07,10.07,0,0,0,7.12,39a15.85,15.85,0,0,0,5,.93c2.21.1,2.91.12,8.52.12s6.31,0,8.51-.12a15.74,15.74,0,0,0,5-.93,10.19,10.19,0,0,0,3.66-2.31,9.87,9.87,0,0,0,2.38-3.55,14.3,14.3,0,0,0,1-4.86c.1-2.13.12-2.81.12-8.25s0-6.12-.12-8.25a14.24,14.24,0,0,0-1-4.86,9.87,9.87,0,0,0-2.38-3.55,10.19,10.19,0,0,0-3.66-2.31,15.74,15.74,0,0,0-5-.93C27,0,26.25,0,20.65,0Z"/><path class="cls-1" d="M20.65,9.74A10.45,10.45,0,0,0,10,20,10.45,10.45,0,0,0,20.65,30.3,10.44,10.44,0,0,0,31.25,20,10.44,10.44,0,0,0,20.65,9.74Zm0,17A6.78,6.78,0,0,1,13.76,20a6.78,6.78,0,0,1,6.89-6.67A6.77,6.77,0,0,1,27.53,20,6.77,6.77,0,0,1,20.65,26.69Z"/><ellipse class="cls-1" cx="31.67" cy="9.33" rx="2.48" ry="2.4"/></g></g></svg>