<svg xmlns="http://www.w3.org/2000/svg" viewBox="0 0 21.77 22.12"><defs><style>.cls-1{fill:#fff;}</style></defs><title>Asset 2</title><g id="Layer_2" data-name="Layer 2"><g id="Layer_1-2" data-name="Layer 1"><path class="cls-1" d="M10.88,0A10.63,10.63,0,0,0,0,10.34a10.06,10.06,0,0,0,3.27,7.37v3.88a.52.52,0,0,0,.75.47l3.69-1.84a11.47,11.47,0,0,0,3.17.46A10.64,10.64,0,0,0,21.77,10.34,10.64,10.64,0,0,0,10.88,0Zm0,2.18a8.46,8.46,0,0,1,8.71,8.16,8.46,8.46,0,0,1-8.71,8.16,9.13,9.13,0,0,1-2.57-.37L7.91,18a1.15,1.15,0,0,0-.81.08l-.37.18-1.29.65V17.25a1.14,1.14,0,0,0-.35-.82l-.34-.31a8,8,0,0,1-2.57-5.78A8.45,8.45,0,0,1,10.88,2.18ZM9.64,7.77,5.28,12.13a.25.25,0,0,0,.28.4l3.23-1.44a.84.84,0,0,1,.86.11l2.15,1.72a.26.26,0,0,0,.33,0l4.35-4.36a.24.24,0,0,0-.27-.4L13,9.59a.84.84,0,0,1-.86-.11L10,7.76A.26.26,0,0,0,9.64,7.77Z"/></g></g></svg>